<svg xmlns="http://www.w3.org/2000/svg" viewBox="0 0 590 403" width="590" height="403" font-family="sans-serif">
<rect width="100%" height="100%" fill="#fff"/>
<polygon points="95.0,308.3 495.0,308.3 415.0,95.0 175.0,95.0" fill="#fff" stroke="#111" stroke-width="2.5"/>
<line x1="201.7" y1="95.0" x2="201.7" y2="308.3" stroke="#111" stroke-width="2" stroke-dasharray="6,5"/>
<polyline points="215.7,308.3 215.7,294.3 201.7,294.3" fill="none" stroke="#111" stroke-width="1.8"/>
<polyline points="215.7,95.0 215.7,109.0 201.7,109.0" fill="none" stroke="#111" stroke-width="1.8"/>
<path d="M175.0,95.0 Q295.0,59.0 415.0,95.0" fill="none" stroke="#555" stroke-width="1.5"/>
<text x="295.0" y="57.0" font-size="24" text-anchor="middle" fill="#111" paint-order="stroke" stroke="#fff" stroke-width="6">9cm</text>
<path d="M95.0,308.3 Q295.0,344.3 495.0,308.3" fill="none" stroke="#555" stroke-width="1.5"/>
<text x="295.0" y="362.3" font-size="24" text-anchor="middle" fill="#111" paint-order="stroke" stroke="#fff" stroke-width="6">15cm</text>
<path d="M201.7,308.3 Q237.7,201.7 201.7,95.0" fill="none" stroke="#555" stroke-width="1.5"/>
<rect x="217.7" y="190.7" width="22" height="22" fill="#fff" stroke="#111" stroke-width="2"/>
<text x="243.7" y="209.7" font-size="24" fill="#111" paint-order="stroke" stroke="#fff" stroke-width="6">cm</text>
<text x="167.0" y="83.0" font-size="24" text-anchor="middle" fill="#111">A</text>
<text x="79.0" y="336.3" font-size="24" text-anchor="middle" fill="#111">B</text>
<text x="511.0" y="336.3" font-size="24" text-anchor="middle" fill="#111">C</text>
<text x="425.0" y="83.0" font-size="24" text-anchor="middle" fill="#111">D</text>
</svg>