<svg xmlns="http://www.w3.org/2000/svg" viewBox="0 0 780 408" width="780" height="408" font-family="sans-serif">
<rect width="100%" height="100%" fill="#fff"/>
<polygon points="95.0,313.2 495.0,313.2 404.1,95.0 185.9,95.0" fill="#fff" stroke="#111" stroke-width="2.5"/>
<line x1="185.9" y1="95.0" x2="185.9" y2="313.2" stroke="#111" stroke-width="2" stroke-dasharray="6,5"/>
<polyline points="199.9,313.2 199.9,299.2 185.9,299.2" fill="none" stroke="#111" stroke-width="1.8"/>
<polyline points="199.9,95.0 199.9,109.0 185.9,109.0" fill="none" stroke="#111" stroke-width="1.8"/>
<path d="M185.9,95.0 Q295.0,59.0 404.1,95.0" fill="none" stroke="#555" stroke-width="1.5"/>
<text x="295.0" y="57.0" font-size="24" text-anchor="middle" fill="#111" paint-order="stroke" stroke="#fff" stroke-width="6">12cm</text>
<path d="M185.9,313.2 Q221.9,204.1 185.9,95.0" fill="none" stroke="#555" stroke-width="1.5"/>
<text x="231.9" y="212.1" font-size="24" text-anchor="middle" fill="#111" paint-order="stroke" stroke="#fff" stroke-width="6">12cm</text>
<path d="M95.0,313.2 Q295.0,349.2 495.0,313.2" fill="none" stroke="#555" stroke-width="1.5"/>
<rect x="265.0" y="348.2" width="22" height="22" fill="#fff" stroke="#111" stroke-width="2"/>
<text x="291.0" y="367.2" font-size="24" fill="#111" paint-order="stroke" stroke="#fff" stroke-width="6">cm</text>
<text x="630" y="198" font-size="24" fill="#111">面積</text>
<text x="630" y="226" font-size="24" fill="#111">204cm²</text>
</svg>