<svg xmlns="http://www.w3.org/2000/svg" viewBox="0 0 590 412" width="590" height="412" font-family="sans-serif">
<rect width="100%" height="100%" fill="#fff"/>
<polygon points="315.5,95.0 495.0,305.8 208.0,316.9 95.0,184.1" fill="#fff" stroke="#111" stroke-width="2.5"/>
<line x1="315.5" y1="95.0" x2="143.7" y2="241.3" stroke="#111" stroke-width="2" stroke-dasharray="6,5"/>
<polyline points="152.8,251.9 163.4,242.9 154.3,232.2" fill="none" stroke="#111" stroke-width="1.8"/>
<polyline points="324.5,105.7 313.9,114.7 304.8,104.1" fill="none" stroke="#111" stroke-width="1.8"/>
<path d="M315.5,95.0 Q432.6,177.1 495.0,305.8" fill="none" stroke="#555" stroke-width="1.5"/>
<text x="440.3" y="178.6" font-size="24" text-anchor="middle" fill="#111" paint-order="stroke" stroke="#fff" stroke-width="6">10.8cm</text>
<path d="M495.0,305.8 Q352.9,347.3 208.0,316.9" fill="none" stroke="#555" stroke-width="1.5"/>
<text x="353.3" y="365.3" font-size="24" text-anchor="middle" fill="#111" paint-order="stroke" stroke="#fff" stroke-width="6">11.2cm</text>
<path d="M208.0,316.9 Q124.1,273.8 95.0,184.1" fill="none" stroke="#555" stroke-width="1.5"/>
<text x="116.5" y="288.3" font-size="24" text-anchor="middle" fill="#111" paint-order="stroke" stroke="#fff" stroke-width="6">6.8cm</text>
<path d="M315.5,95.0 Q252.9,195.6 143.7,241.3" fill="none" stroke="#555" stroke-width="1.5"/>
<text x="259.4" y="211.2" font-size="24" text-anchor="middle" fill="#111" paint-order="stroke" stroke="#fff" stroke-width="6">8.8cm</text>
</svg>